<svg width="440" height="1188" viewBox="0 0 440 1188" fill="none" xmlns="http://www.w3.org/2000/svg">
<mask id="mask0_4_102" style="mask-type:alpha" maskUnits="userSpaceOnUse" x="0" y="0" width="440" height="1194">
<path d="M440 0H0V1194H440V0Z" fill="white"/>
</mask>
<g mask="url(#mask0_4_102)">
<path d="M440 0H0V1194H440V0Z" fill="#FFBA07"/>
<path d="M0 533.135C72.1043 520.039 87.5571 376.994 140.781 307.471C181.348 254.48 249.914 245.696 273.788 175.5C297.715 105.151 275.169 23.0302 263.437 -53.1634C252.461 -124.437 236.924 -192.359 207.838 -252.78C175.731 -319.478 139.756 -385.199 87.5553 -418.534C31.3139 -454.449 -33.3614 -467.204 -93.0788 -444.939C-153.52 -422.403 -196.857 -354.841 -242.838 -295.347C-294.486 -228.521 -370.971 -174.383 -378 -76.2834C-385.053 22.1508 -316.183 95.4114 -276.71 177.372C-243.861 245.58 -209.572 307.639 -166.319 363.249C-114.713 429.599 -69.405 545.741 0 533.135Z" fill="#B07F00"/>
<path d="M440 1710.08C511.122 1723.3 593.541 1712.09 645.268 1642.32C696.319 1573.45 669.578 1450.42 699.342 1360.24C729.364 1269.28 814.142 1217.69 818.452 1117.63C822.821 1016.2 774.94 920.095 721.237 851.951C670.346 787.376 596.981 785.089 532.012 754.161C463.636 721.611 396.695 628.614 329.427 665.434C261.101 702.834 269.43 850.458 219.16 925.408C165.372 1005.6 43.8949 1002.84 30.3541 1111.33C16.964 1218.61 118.139 1282.88 163.515 1371.23C198.631 1439.6 221.702 1516.54 266.936 1571.98C317.954 1634.51 372.856 1697.6 440 1710.08Z" fill="#FFD25E"/>
</g>
</svg>
